<?xml version="1.0" encoding="UTF-8"?>
<svg width="17px" height="20px" viewBox="0 0 17 20" version="1.1" xmlns="http://www.w3.org/2000/svg" xmlns:xlink="http://www.w3.org/1999/xlink">
    <!-- Generator: Sketch 52.1 (67048) - http://www.bohemiancoding.com/sketch -->
    <title>user</title>
    <desc>Created with Sketch.</desc>
    <g id="Page-1" stroke="none" stroke-width="1" fill="none" fill-rule="evenodd">
        <g id="user" fill="#666666">
            <path d="M8.63492063,0 C5.80790159,0 3.50793651,2.29996508 3.50793651,5.12698413 C3.50793651,7.95400317 5.80790159,10.2539683 8.63492063,10.2539683 C11.4619397,10.2539683 13.7619048,7.95400317 13.7619048,5.12698413 C13.7619048,2.29996508 11.4619397,0 8.63492063,0" id="Fill-1"></path>
            <path d="M9.63332578,11.4682653 L7.36665911,11.4682653 C5.40191244,11.4682653 3.55087689,12.2442836 2.15461022,13.65341 C0.765181333,15.0556274 -7.55555556e-06,16.9065514 -7.55555556e-06,18.8653527 C-7.55555556e-06,19.1764059 0.253708,19.4285827 0.566659111,19.4285827 L16.4333258,19.4285827 C16.7462769,19.4285827 16.9999924,19.1764059 16.9999924,18.8653527 C16.9999924,16.9065514 16.2348036,15.0556274 14.8453747,13.65341 C13.449108,12.2442836 11.5981102,11.4682653 9.63332578,11.4682653 Z" id="Fill-3"></path>
        </g>
    </g>
</svg>