<?xml version="1.0" encoding="UTF-8"?>
<svg width="24px" height="24px" viewBox="0 0 24 24" version="1.1" xmlns="http://www.w3.org/2000/svg" xmlns:xlink="http://www.w3.org/1999/xlink">
    <!-- Generator: Sketch 49.3 (51167) - http://www.bohemiancoding.com/sketch -->
    <title>Dribbble Icon</title>
    <desc>Created with Sketch.</desc>
    <defs></defs>
    <g id="Page-1" stroke="none" stroke-width="1" fill="none" fill-rule="evenodd">
        <g id="Components" transform="translate(-683.000000, -934.000000)" fill="#DDDDDD">
            <g id="Social" transform="translate(100.000000, 849.000000)">
                <g id="Rounded-Icons" transform="translate(515.000000, 85.000000)">
                    <g id="Dribbble-Icon" transform="translate(68.000000, 0.000000)">
                        <path d="M12,24 C5.372583,24 0,18.627417 0,12 C0,5.372583 5.372583,0 12,0 C18.627417,0 24,5.372583 24,12 C24,18.627417 18.627417,24 12,24 Z M18,12 C18,8.688 15.312,6 12,6 C8.688,6 6,8.688 6,12 C6,15.312 8.688,18 12,18 C15.312,18 18,15.312 18,12 Z M8.856,16.044 L8.736,15.948 C8.772,15.984 8.808,16.008 8.856,16.032 L8.856,16.044 Z M12.552,11.976 C10.848,12.468 9.048,13.896 8.184,15.42 L8.196,15.432 C7.344,14.484 6.876,13.26 6.876,12 L6.876,11.832 C8.58,11.88 10.524,11.592 12.144,11.112 C12.288,11.4 12.432,11.688 12.552,11.976 Z M14.004,16.716 C13.368,16.992 12.684,17.124 12,17.124 C10.86,17.124 9.756,16.74 8.856,16.032 C8.988,15.744 9.192,15.468 9.384,15.228 C10.308,14.076 11.484,13.32 12.876,12.84 L12.9,12.828 C13.392,14.076 13.776,15.396 14.004,16.716 Z M11.712,10.32 C10.224,10.716 8.628,10.956 7.08,10.944 L6.984,10.944 C7.32,9.372 8.364,8.052 9.816,7.368 C10.512,8.304 11.148,9.3 11.712,10.32 Z M17.064,12.816 C16.836,14.208 16.032,15.456 14.868,16.248 C14.652,15.012 14.292,13.776 13.86,12.588 C14.22,12.528 14.58,12.504 14.928,12.504 C15.636,12.504 16.392,12.6 17.064,12.816 Z M15.384,8.16 C14.856,8.976 13.584,9.684 12.708,10.008 C12.144,8.976 11.508,7.956 10.788,7.02 C11.184,6.924 11.592,6.876 12,6.876 C13.248,6.876 14.448,7.332 15.384,8.16 Z M17.124,11.952 C16.344,11.784 15.528,11.712 14.736,11.712 C14.34,11.712 13.944,11.736 13.548,11.784 C13.416,11.436 13.26,11.1 13.104,10.776 C14.028,10.392 15.372,9.6 15.96,8.748 C16.704,9.648 17.112,10.776 17.124,11.952 Z"></path>
                    </g>
                </g>
            </g>
        </g>
    </g>
</svg>