<?xml version="1.0" encoding="UTF-8"?>
<svg width="24px" height="24px" viewBox="0 0 24 24" version="1.1" xmlns="http://www.w3.org/2000/svg" xmlns:xlink="http://www.w3.org/1999/xlink">
    <!-- Generator: Sketch 49.3 (51167) - http://www.bohemiancoding.com/sketch -->
    <title>Twitter Icon</title>
    <desc>Created with Sketch.</desc>
    <defs></defs>
    <g id="Page-1" stroke="none" stroke-width="1" fill="none" fill-rule="evenodd">
        <g id="Components" transform="translate(-649.000000, -934.000000)" fill="#DDDDDD">
            <g id="Social" transform="translate(100.000000, 849.000000)">
                <g id="Rounded-Icons" transform="translate(515.000000, 85.000000)">
                    <g id="Twitter-Icon" transform="translate(34.000000, 0.000000)">
                        <path d="M12,24 C5.372583,24 0,18.627417 0,12 C0,5.372583 5.372583,0 12,0 C18.627417,0 24,5.372583 24,12 C24,18.627417 18.627417,24 12,24 Z M15.5433071,9.40709178 C15.5433071,9.40709178 15.5433071,9.30658522 15.5433071,9.40709178 C15.0708661,8.904559 14.503937,8.70354589 13.9370079,8.80405244 C14.503937,8.70354589 14.7874016,8.50253278 14.8818898,8.40202622 C14.8818898,8.30151967 14.8818898,8.20101311 14.7874016,8.20101311 C14.503937,8.20101311 14.2204724,8.30151967 14.0314961,8.40202622 C14.3149606,8.20101311 14.4094488,8.10050656 14.4094488,8 C14.1259843,8 13.8425197,8.20101311 13.4645669,8.50253278 C13.5590551,8.30151967 13.6535433,8.20101311 13.5590551,8.10050656 C13.3700787,8.20101311 13.2755906,8.30151967 13.1811024,8.50253278 C12.8976378,8.80405244 12.7086614,9.00506555 12.6141732,9.30658522 C12.2362205,10.0101311 11.9527559,10.6131704 11.7637795,11.3167163 L11.6692913,11.3167163 C11.480315,11.0151967 11.1968504,10.713677 10.8188976,10.5126639 C10.4409449,10.2111442 9.96850394,10.0101311 9.4015748,9.70861144 C8.83464567,9.40709178 8.26771654,9.10557211 7.60629921,8.904559 C7.60629921,9.60810489 7.88976378,10.2111442 8.5511811,10.6131704 C8.36220472,10.6131704 8.07874016,10.6131704 7.88976378,10.713677 C7.88976378,11.3167163 8.36220472,11.8192491 9.21259843,12.0202622 C8.92913386,12.0202622 8.64566929,12.1207688 8.36220472,12.3217819 C8.64566929,12.9248212 9.11811024,13.1258343 9.87401575,13.1258343 C9.77952756,13.2263409 9.59055118,13.3268474 9.59055118,13.3268474 C9.49606299,13.427354 9.4015748,13.6283671 9.49606299,13.8293802 C9.68503937,14.1308999 9.87401575,14.2314064 10.3464567,14.2314064 C9.68503937,14.9349523 8.83464567,15.3369785 7.88976378,15.236472 C7.32283465,15.236472 6.66141732,14.9349523 6,14.331913 C6.66141732,15.3369785 7.60629921,16.141031 8.74015748,16.6435638 C10.0629921,17.04559 11.3858268,17.1460965 12.6141732,16.7440703 C13.8425197,16.3420441 14.976378,15.5379917 15.8267717,14.4324196 C16.2047244,13.8293802 16.488189,13.2263409 16.5826772,12.6233016 C17.2440945,12.6233016 17.7165354,12.4222884 18,12.0202622 C17.8110236,12.1207688 17.3385827,12.1207688 16.6771654,11.9197557 C17.3385827,11.8192491 17.8110236,11.618236 17.9055118,11.2162098 C17.4330709,11.4172229 16.9606299,11.4172229 16.488189,11.2162098 C16.3937008,10.5126639 16.1102362,9.90962455 15.5433071,9.40709178 Z"></path>
                    </g>
                </g>
            </g>
        </g>
    </g>
</svg>